<svg width="57" height="17" viewBox="0 0 57 17" fill="none" xmlns="http://www.w3.org/2000/svg">
<path fill-rule="evenodd" clip-rule="evenodd" d="M6.97961 15.1225V8.14288H0V6.97961H6.97961V0H8.14288V6.97961H15.1225V8.14288H8.14288V15.1225H6.97961ZM24.2156 13.8184L27.4922 8.14288H20.9388V6.97961H27.493L24.2156 1.303L25.223 0.721363L28.4998 6.39798L31.7769 0.721363L32.7842 1.303L29.5069 6.97961H36.0613V8.14288H29.5077L32.7842 13.8184L31.7769 14.4L28.5001 8.72451L25.223 14.4L24.2156 13.8184ZM46.5307 16.2858V10.4694H41.8777V9.30615H46.5307V5.81634H41.8777V4.65307H46.5307V1.16327H47.694V4.65307H51.1838V1.16327H52.3471V4.65307H57.0001V5.81634H52.3471V9.30615H57.0001V10.4694H52.3471V16.2858H51.1838V10.4694H47.694V16.2858H46.5307ZM51.1838 9.30615V5.81634H47.694V9.30615H51.1838Z" fill="black"/>
</svg>
