<svg width="42" height="42" viewBox="0 0 42 42" fill="none" xmlns="http://www.w3.org/2000/svg">
<path d="M33 22C33.5523 22 34 21.5523 34 21C34 20.4477 33.5523 20 33 20V22ZM7.29289 20.2929C6.90237 20.6834 6.90237 21.3166 7.29289 21.7071L13.6569 28.0711C14.0474 28.4616 14.6805 28.4616 15.0711 28.0711C15.4616 27.6805 15.4616 27.0474 15.0711 26.6569L9.41421 21L15.0711 15.3431C15.4616 14.9526 15.4616 14.3195 15.0711 13.9289C14.6805 13.5384 14.0474 13.5384 13.6569 13.9289L7.29289 20.2929ZM33 20L8 20V22L33 22V20Z" fill="black"/>
</svg>
