<svg width="37" height="37" viewBox="0 0 37 37" fill="none" xmlns="http://www.w3.org/2000/svg">
<path d="M17.5908 15.638C17.2522 15.2994 17.2522 14.7503 17.5908 14.4116C17.9295 14.073 18.4786 14.073 18.8172 14.4116L21.6788 17.2733L24.5404 14.4116C24.879 14.073 25.428 14.073 25.7668 14.4116C26.1054 14.7503 26.1054 15.2994 25.7668 15.638L22.9051 18.4996L25.7668 21.3612C26.1054 21.6998 26.1054 22.2489 25.7668 22.5875C25.428 22.9262 24.879 22.9262 24.5404 22.5875L21.6788 19.726L18.8172 22.5875C18.4786 22.9262 17.9295 22.9262 17.5909 22.5875C17.2522 22.2489 17.2522 21.6998 17.5909 21.3611L20.4524 18.4997L17.5908 15.638Z" fill="black"/>
<path fill-rule="evenodd" clip-rule="evenodd" d="M14.0145 9.68743L5.20229 18.4996L14.0145 27.3118C14.665 27.9623 15.5473 28.3277 16.4673 28.3277H28.3273C30.243 28.3277 31.796 26.7747 31.796 24.859V12.1402C31.796 10.2245 30.243 8.67147 28.3273 8.67147H16.4673C15.5473 8.67147 14.665 9.03697 14.0145 9.68743ZM28.3273 26.8246H16.4673C15.9459 26.8246 15.4459 26.6175 15.0773 26.2489L7.32806 18.4996L15.0773 10.7503C15.4459 10.3817 15.9459 10.1746 16.4673 10.1746H28.3273C29.4128 10.1746 30.2928 11.0546 30.2928 12.1402V24.859C30.2928 25.9446 29.4128 26.8246 28.3273 26.8246Z" fill="black"/>
</svg>
